<?xml version="1.0" standalone="no"?>
<!DOCTYPE svg PUBLIC "-//W3C//DTD SVG 20010904//EN"
 "http://www.w3.org/TR/2001/REC-SVG-20010904/DTD/svg10.dtd">
<svg version="1.0" xmlns="http://www.w3.org/2000/svg"
 width="512.000000pt" height="512.000000pt" viewBox="0 0 512.000000 512.000000"
 preserveAspectRatio="xMidYMid meet">

<g transform="translate(0.000000,512.000000) scale(0.100000,-0.100000)"
fill="#000000" stroke="none">
<path d="M3210 4590 c-19 -10 -128 -112 -242 -227 -168 -170 -208 -215 -217
-248 -13 -49 -13 -51 0 -98 6 -24 34 -63 75 -107 l65 -68 -283 -247 c-156
-136 -321 -281 -367 -322 -58 -51 -90 -72 -100 -67 -9 4 -58 20 -109 35 -394
120 -789 5 -1141 -334 -91 -88 -109 -144 -75 -225 10 -25 143 -165 407 -430
216 -216 393 -396 395 -401 2 -5 -81 -112 -184 -237 -608 -742 -726 -888 -736
-909 -23 -51 41 -125 97 -111 12 3 136 99 276 213 140 115 292 239 339 278 47
38 185 152 307 252 123 101 226 183 230 183 5 0 179 -171 388 -381 209 -210
400 -394 424 -410 50 -32 101 -38 154 -15 44 18 186 172 258 279 68 102 129
224 159 317 68 215 66 469 -5 672 -28 81 -34 66 66 180 57 65 469 536 521 597
l30 34 56 -55 c32 -30 65 -60 74 -67 30 -23 90 -31 138 -19 40 10 69 35 257
221 117 116 219 225 228 243 17 37 20 100 4 141 -13 36 -1293 1318 -1335 1338
-43 20 -111 18 -154 -5z m589 -894 l503 -503 -65 -67 c-35 -36 -68 -66 -71
-66 -4 0 -115 108 -247 240 -131 132 -250 242 -263 246 -32 8 -77 -14 -95 -47
-25 -45 -7 -76 122 -207 67 -67 124 -125 126 -127 1 -2 -122 -147 -275 -322
-351 -401 -547 -627 -551 -633 -2 -2 -72 64 -156 148 -126 125 -159 154 -188
158 -50 8 -93 -29 -93 -80 0 -35 13 -50 207 -244 229 -229 235 -239 271 -415
43 -209 -12 -431 -156 -624 l-24 -32 -813 813 -813 813 87 58 c99 65 198 109
286 126 84 17 277 6 354 -20 113 -37 140 -53 210 -121 39 -38 79 -70 90 -71
83 -12 134 81 79 143 -14 15 27 54 461 433 452 396 478 417 501 406 40 -18 73
-13 99 15 27 29 32 63 14 97 -7 11 -63 71 -125 133 -63 62 -114 115 -114 117
0 6 123 134 130 136 3 0 232 -226 509 -503z m-2012 -2008 c18 -18 33 -35 33
-39 0 -4 -87 -78 -192 -165 -262 -213 -236 -193 -217 -169 170 211 331 405
336 405 4 0 22 -14 40 -32z"/>
</g>
</svg>
